<svg width="351" height="323" viewBox="0 0 351 323" fill="none" xmlns="http://www.w3.org/2000/svg">
<path d="M307.925 254.018L285.346 214.91L246.238 237.489L231.185 211.417L270.293 188.838L247.714 149.73L273.786 134.677L296.365 173.785L335.473 151.206L350.526 177.278L311.418 199.857L333.997 238.965L307.925 254.018ZM136.441 318.261C129.271 322.401 121.656 323.391 113.595 321.231C105.535 319.071 99.4419 314.408 95.3161 307.242L5.00031 150.811C0.860831 143.641 -0.129015 136.026 2.03077 127.965C4.19055 119.905 8.85349 113.812 16.0196 109.686L29.0556 102.16L14.0029 76.0878L40.0748 61.0352L55.1275 87.1071L133.343 41.9492L118.291 15.8773L144.363 0.824638L159.415 26.8966L172.451 19.3702C179.621 15.2308 187.236 14.2409 195.296 16.4007C203.357 18.5605 209.45 23.2234 213.576 30.3895L259.486 109.909C254.765 111.766 250.231 113.949 245.886 116.458C241.54 118.966 237.383 121.801 233.414 124.962L217.609 97.586L61.1775 187.902L121.388 292.189L212.64 239.505C215.149 243.851 217.983 248.008 221.144 251.977C224.304 255.946 228.008 259.601 232.255 262.943L136.441 318.261Z" fill="white" fill-opacity="0.1"/>
</svg>
