<svg width="989" height="70" viewBox="0 0 989 70" fill="none" xmlns="http://www.w3.org/2000/svg">
<rect width="989" height="70" rx="30" fill="white"/>
<path d="M884.335 42.735L878.3 36.7V28.2H881.7V35.2975L886.715 40.3125L884.335 42.735ZM878.3 24.8V21.4H881.7V24.8H878.3ZM890.2 36.7V33.3H893.6V36.7H890.2ZM878.3 48.6V45.2H881.7V48.6H878.3ZM866.4 36.7V33.3H869.8V36.7H866.4ZM880 52C877.648 52 875.438 51.5535 873.37 50.6604C871.302 49.7673 869.502 48.5564 867.972 47.0275C866.442 45.4975 865.232 43.6983 864.34 41.63C863.448 39.5617 863.001 37.3517 863 35C863 32.6483 863.447 30.4383 864.34 28.37C865.233 26.3017 866.444 24.5025 867.972 22.9725C869.502 21.4425 871.302 20.2315 873.37 19.3396C875.438 18.4477 877.648 18.0011 880 18C882.352 18 884.562 18.4465 886.63 19.3396C888.698 20.2327 890.497 21.4436 892.027 22.9725C893.557 24.5025 894.769 26.3017 895.662 28.37C896.555 30.4383 897.001 32.6483 897 35C897 37.3517 896.553 39.5617 895.66 41.63C894.767 43.6983 893.556 45.4975 892.027 47.0275C890.497 48.5575 888.698 49.769 886.63 50.6621C884.562 51.5552 882.352 52.0011 880 52ZM880 48.6C883.797 48.6 887.012 47.2825 889.647 44.6475C892.282 42.0125 893.6 38.7967 893.6 35C893.6 31.2033 892.282 27.9875 889.647 25.3525C887.012 22.7175 883.797 21.4 880 21.4C876.203 21.4 872.987 22.7175 870.352 25.3525C867.717 27.9875 866.4 31.2033 866.4 35C866.4 38.7967 867.717 42.0125 870.352 44.6475C872.987 47.2825 876.203 48.6 880 48.6Z" fill="#8B6BE7"/>
<circle cx="43" cy="35" r="10" fill="#D062DD"/>
<circle cx="79" cy="35" r="10" fill="#3FD4F4"/>
<circle cx="115" cy="35" r="10" fill="#FAC608"/>
<path d="M155.568 39.1818H158.466L160.895 42.3778L161.534 43.2301L165.156 48.0455H162.259L159.872 44.8494L159.276 44.0398L155.568 39.1818ZM166.051 35.0909C166.051 37.392 165.636 39.3807 164.805 41.0568C163.974 42.733 162.834 44.0256 161.385 44.9347C159.936 45.8438 158.281 46.2983 156.42 46.2983C154.56 46.2983 152.905 45.8438 151.456 44.9347C150.007 44.0256 148.867 42.733 148.036 41.0568C147.205 39.3807 146.79 37.392 146.79 35.0909C146.79 32.7898 147.205 30.8011 148.036 29.125C148.867 27.4489 150.007 26.1562 151.456 25.2472C152.905 24.3381 154.56 23.8835 156.42 23.8835C158.281 23.8835 159.936 24.3381 161.385 25.2472C162.834 26.1562 163.974 27.4489 164.805 29.125C165.636 30.8011 166.051 32.7898 166.051 35.0909ZM163.494 35.0909C163.494 33.2017 163.178 31.6072 162.546 30.3075C161.921 29.0078 161.072 28.0241 160 27.3565C158.935 26.6889 157.741 26.3551 156.42 26.3551C155.099 26.3551 153.903 26.6889 152.83 27.3565C151.765 28.0241 150.916 29.0078 150.284 30.3075C149.659 31.6072 149.347 33.2017 149.347 35.0909C149.347 36.9801 149.659 38.5746 150.284 39.8743C150.916 41.174 151.765 42.1577 152.83 42.8253C153.903 43.4929 155.099 43.8267 156.42 43.8267C157.741 43.8267 158.935 43.4929 160 42.8253C161.072 42.1577 161.921 41.174 162.546 39.8743C163.178 38.5746 163.494 36.9801 163.494 35.0909ZM180.465 39.3097V29.6364H182.979V46H180.465V43.2301H180.295C179.911 44.0611 179.315 44.7678 178.505 45.3501C177.695 45.9254 176.673 46.2131 175.437 46.2131C174.414 46.2131 173.505 45.9893 172.71 45.5419C171.914 45.0874 171.289 44.4055 170.835 43.4964C170.38 42.5803 170.153 41.4261 170.153 40.0341V29.6364H172.667V39.8636C172.667 41.0568 173.001 42.0085 173.668 42.7188C174.343 43.429 175.202 43.7841 176.246 43.7841C176.871 43.7841 177.507 43.6243 178.153 43.3047C178.807 42.9851 179.354 42.495 179.794 41.8345C180.241 41.174 180.465 40.3324 180.465 39.3097ZM192.4 46.3835C191.363 46.3835 190.422 46.1882 189.577 45.7976C188.731 45.3999 188.06 44.8281 187.563 44.0824C187.066 43.3295 186.817 42.4205 186.817 41.3551C186.817 40.4176 187.002 39.6577 187.371 39.0753C187.741 38.4858 188.234 38.0241 188.852 37.6903C189.47 37.3565 190.152 37.108 190.898 36.9446C191.65 36.7741 192.407 36.6392 193.167 36.5398C194.161 36.4119 194.967 36.3161 195.585 36.2521C196.21 36.1811 196.665 36.0639 196.949 35.9006C197.24 35.7372 197.385 35.4531 197.385 35.0483V34.9631C197.385 33.9119 197.098 33.0952 196.523 32.5128C195.954 31.9304 195.091 31.6392 193.934 31.6392C192.733 31.6392 191.792 31.902 191.111 32.4276C190.429 32.9531 189.949 33.5142 189.672 34.1108L187.286 33.2585C187.712 32.2642 188.28 31.4901 188.991 30.9361C189.708 30.375 190.489 29.9844 191.334 29.7642C192.187 29.5369 193.025 29.4233 193.849 29.4233C194.374 29.4233 194.978 29.4872 195.66 29.6151C196.349 29.7358 197.013 29.9879 197.652 30.3714C198.298 30.755 198.834 31.3338 199.26 32.108C199.687 32.8821 199.9 33.919 199.9 35.2188V46H197.385V43.7841H197.258C197.087 44.1392 196.803 44.5192 196.405 44.924C196.008 45.3288 195.479 45.6733 194.818 45.9574C194.157 46.2415 193.351 46.3835 192.4 46.3835ZM192.783 44.125C193.778 44.125 194.616 43.9297 195.297 43.5391C195.986 43.1484 196.505 42.6442 196.853 42.0263C197.208 41.4084 197.385 40.7585 197.385 40.0767V37.7756C197.279 37.9034 197.045 38.0206 196.682 38.1271C196.327 38.2266 195.915 38.3153 195.447 38.3935C194.985 38.4645 194.534 38.5284 194.094 38.5852C193.66 38.6349 193.309 38.6776 193.039 38.7131C192.385 38.7983 191.775 38.9368 191.206 39.1286C190.645 39.3132 190.191 39.5937 189.843 39.9702C189.502 40.3395 189.331 40.8437 189.331 41.483C189.331 42.3565 189.655 43.017 190.301 43.4645C190.954 43.9048 191.782 44.125 192.783 44.125ZM207.003 24.1818V46H204.489V24.1818H207.003ZM224.861 46.3835C223.824 46.3835 222.883 46.1882 222.037 45.7976C221.192 45.3999 220.521 44.8281 220.024 44.0824C219.527 43.3295 219.278 42.4205 219.278 41.3551C219.278 40.4176 219.463 39.6577 219.832 39.0753C220.202 38.4858 220.695 38.0241 221.313 37.6903C221.931 37.3565 222.613 37.108 223.358 36.9446C224.111 36.7741 224.868 36.6392 225.628 36.5398C226.622 36.4119 227.428 36.3161 228.046 36.2521C228.671 36.1811 229.126 36.0639 229.41 35.9006C229.701 35.7372 229.846 35.4531 229.846 35.0483V34.9631C229.846 33.9119 229.559 33.0952 228.983 32.5128C228.415 31.9304 227.552 31.6392 226.395 31.6392C225.194 31.6392 224.253 31.902 223.572 32.4276C222.89 32.9531 222.41 33.5142 222.133 34.1108L219.747 33.2585C220.173 32.2642 220.741 31.4901 221.452 30.9361C222.169 30.375 222.95 29.9844 223.795 29.7642C224.648 29.5369 225.486 29.4233 226.309 29.4233C226.835 29.4233 227.439 29.4872 228.121 29.6151C228.809 29.7358 229.474 29.9879 230.113 30.3714C230.759 30.755 231.295 31.3338 231.721 32.108C232.148 32.8821 232.361 33.919 232.361 35.2188V46H229.846V43.7841H229.719C229.548 44.1392 229.264 44.5192 228.866 44.924C228.469 45.3288 227.939 45.6733 227.279 45.9574C226.618 46.2415 225.812 46.3835 224.861 46.3835ZM225.244 44.125C226.238 44.125 227.077 43.9297 227.758 43.5391C228.447 43.1484 228.966 42.6442 229.314 42.0263C229.669 41.4084 229.846 40.7585 229.846 40.0767V37.7756C229.74 37.9034 229.506 38.0206 229.143 38.1271C228.788 38.2266 228.376 38.3153 227.907 38.3935C227.446 38.4645 226.995 38.5284 226.555 38.5852C226.121 38.6349 225.77 38.6776 225.5 38.7131C224.846 38.7983 224.236 38.9368 223.667 39.1286C223.106 39.3132 222.652 39.5937 222.304 39.9702C221.963 40.3395 221.792 40.8437 221.792 41.483C221.792 42.3565 222.116 43.017 222.762 43.4645C223.415 43.9048 224.243 44.125 225.244 44.125ZM256.978 33.3011L254.719 33.9403C254.577 33.5639 254.368 33.1982 254.091 32.843C253.821 32.4808 253.452 32.1825 252.983 31.9482C252.514 31.7138 251.914 31.5966 251.183 31.5966C250.181 31.5966 249.347 31.8274 248.679 32.2891C248.018 32.7436 247.688 33.3224 247.688 34.0256C247.688 34.6506 247.915 35.1442 248.37 35.5064C248.825 35.8686 249.535 36.1705 250.501 36.4119L252.93 37.0085C254.393 37.3636 255.483 37.907 256.2 38.6385C256.918 39.3629 257.276 40.2969 257.276 41.4403C257.276 42.3778 257.006 43.2159 256.467 43.9545C255.934 44.6932 255.188 45.2756 254.229 45.7017C253.271 46.1278 252.156 46.3409 250.884 46.3409C249.215 46.3409 247.834 45.9787 246.74 45.2543C245.646 44.5298 244.954 43.4716 244.663 42.0795L247.049 41.483C247.276 42.3636 247.706 43.0241 248.338 43.4645C248.977 43.9048 249.812 44.125 250.842 44.125C252.013 44.125 252.944 43.8764 253.633 43.3793C254.329 42.875 254.677 42.2713 254.677 41.5682C254.677 41 254.478 40.5241 254.08 40.1406C253.683 39.75 253.072 39.4588 252.248 39.267L249.521 38.6278C248.022 38.2727 246.921 37.7223 246.218 36.9766C245.522 36.2237 245.174 35.2827 245.174 34.1534C245.174 33.2301 245.433 32.4134 245.952 31.7031C246.477 30.9929 247.191 30.4354 248.093 30.0305C249.002 29.6257 250.032 29.4233 251.183 29.4233C252.802 29.4233 254.073 29.7784 254.996 30.4886C255.927 31.1989 256.587 32.1364 256.978 33.3011ZM271.373 39.3097V29.6364H273.888V46H271.373V43.2301H271.203C270.819 44.0611 270.223 44.7678 269.413 45.3501C268.604 45.9254 267.581 46.2131 266.345 46.2131C265.322 46.2131 264.413 45.9893 263.618 45.5419C262.822 45.0874 262.197 44.4055 261.743 43.4964C261.288 42.5803 261.061 41.4261 261.061 40.0341V29.6364H263.575V39.8636C263.575 41.0568 263.909 42.0085 264.577 42.7188C265.251 43.429 266.111 43.7841 267.155 43.7841C267.78 43.7841 268.415 43.6243 269.062 43.3047C269.715 42.9851 270.262 42.495 270.702 41.8345C271.15 41.174 271.373 40.3324 271.373 39.3097ZM283.308 46.3835C282.271 46.3835 281.33 46.1882 280.485 45.7976C279.64 45.3999 278.968 44.8281 278.471 44.0824C277.974 43.3295 277.725 42.4205 277.725 41.3551C277.725 40.4176 277.91 39.6577 278.279 39.0753C278.649 38.4858 279.142 38.0241 279.76 37.6903C280.378 37.3565 281.06 37.108 281.806 36.9446C282.559 36.7741 283.315 36.6392 284.075 36.5398C285.069 36.4119 285.875 36.3161 286.493 36.2521C287.118 36.1811 287.573 36.0639 287.857 35.9006C288.148 35.7372 288.294 35.4531 288.294 35.0483V34.9631C288.294 33.9119 288.006 33.0952 287.431 32.5128C286.863 31.9304 286 31.6392 284.842 31.6392C283.642 31.6392 282.701 31.902 282.019 32.4276C281.337 32.9531 280.858 33.5142 280.581 34.1108L278.194 33.2585C278.62 32.2642 279.189 31.4901 279.899 30.9361C280.616 30.375 281.397 29.9844 282.243 29.7642C283.095 29.5369 283.933 29.4233 284.757 29.4233C285.282 29.4233 285.886 29.4872 286.568 29.6151C287.257 29.7358 287.921 29.9879 288.56 30.3714C289.206 30.755 289.743 31.3338 290.169 32.108C290.595 32.8821 290.808 33.919 290.808 35.2188V46H288.294V43.7841H288.166C287.995 44.1392 287.711 44.5192 287.314 44.924C286.916 45.3288 286.387 45.6733 285.726 45.9574C285.066 46.2415 284.26 46.3835 283.308 46.3835ZM283.691 44.125C284.686 44.125 285.524 43.9297 286.206 43.5391C286.895 43.1484 287.413 42.6442 287.761 42.0263C288.116 41.4084 288.294 40.7585 288.294 40.0767V37.7756C288.187 37.9034 287.953 38.0206 287.591 38.1271C287.235 38.2266 286.824 38.3153 286.355 38.3935C285.893 38.4645 285.442 38.5284 285.002 38.5852C284.569 38.6349 284.217 38.6776 283.947 38.7131C283.294 38.7983 282.683 38.9368 282.115 39.1286C281.554 39.3132 281.099 39.5937 280.751 39.9702C280.41 40.3395 280.24 40.8437 280.24 41.483C280.24 42.3565 280.563 43.017 281.209 43.4645C281.863 43.9048 282.69 44.125 283.691 44.125ZM303.834 52.1364V29.6364H306.263V32.2358H306.562C306.746 31.9517 307.002 31.5895 307.329 31.1491C307.662 30.7017 308.138 30.304 308.756 29.956C309.381 29.6009 310.226 29.4233 311.292 29.4233C312.67 29.4233 313.884 29.7678 314.935 30.4567C315.986 31.1456 316.807 32.1222 317.396 33.3864C317.986 34.6506 318.28 36.142 318.28 37.8608C318.28 39.5938 317.986 41.0959 317.396 42.3672C316.807 43.6314 315.99 44.6115 314.946 45.3075C313.902 45.9964 312.698 46.3409 311.334 46.3409C310.283 46.3409 309.442 46.1669 308.809 45.8189C308.177 45.4638 307.691 45.0625 307.35 44.6151C307.009 44.1605 306.746 43.7841 306.562 43.4858H306.349V52.1364H303.834ZM306.306 37.8182C306.306 39.054 306.487 40.1442 306.849 41.0888C307.211 42.0263 307.741 42.7614 308.437 43.294C309.133 43.8196 309.985 44.0824 310.993 44.0824C312.045 44.0824 312.922 43.8054 313.625 43.2514C314.335 42.6903 314.868 41.9375 315.223 40.9929C315.585 40.0412 315.766 38.983 315.766 37.8182C315.766 36.6676 315.589 35.6307 315.233 34.7074C314.885 33.777 314.356 33.0419 313.646 32.5021C312.943 31.9553 312.059 31.6818 310.993 31.6818C309.971 31.6818 309.111 31.9411 308.415 32.4595C307.719 32.9709 307.194 33.6882 306.839 34.6115C306.483 35.5277 306.306 36.5966 306.306 37.8182ZM322.116 46V29.6364H324.545V32.108H324.715C325.013 31.2983 325.553 30.6413 326.334 30.1371C327.116 29.6328 327.996 29.3807 328.976 29.3807C329.161 29.3807 329.392 29.3842 329.669 29.3913C329.946 29.3984 330.155 29.4091 330.297 29.4233V31.9801C330.212 31.9588 330.017 31.9268 329.711 31.8842C329.413 31.8345 329.097 31.8097 328.763 31.8097C327.968 31.8097 327.258 31.9766 326.633 32.3104C326.015 32.6371 325.525 33.0916 325.162 33.674C324.807 34.2493 324.63 34.9062 324.63 35.6449V46H322.116ZM339.427 46.3409C337.95 46.3409 336.654 45.9893 335.539 45.2862C334.431 44.5831 333.564 43.5994 332.939 42.3352C332.322 41.071 332.013 39.5937 332.013 37.9034C332.013 36.1989 332.322 34.7109 332.939 33.4396C333.564 32.1683 334.431 31.1811 335.539 30.478C336.654 29.7749 337.95 29.4233 339.427 29.4233C340.905 29.4233 342.197 29.7749 343.305 30.478C344.42 31.1811 345.287 32.1683 345.905 33.4396C346.53 34.7109 346.842 36.1989 346.842 37.9034C346.842 39.5937 346.53 41.071 345.905 42.3352C345.287 43.5994 344.42 44.5831 343.305 45.2862C342.197 45.9893 340.905 46.3409 339.427 46.3409ZM339.427 44.0824C340.55 44.0824 341.473 43.7947 342.197 43.2195C342.922 42.6442 343.458 41.8878 343.806 40.9503C344.154 40.0128 344.328 38.9972 344.328 37.9034C344.328 36.8097 344.154 35.7905 343.806 34.8459C343.458 33.9013 342.922 33.1378 342.197 32.5554C341.473 31.973 340.55 31.6818 339.427 31.6818C338.305 31.6818 337.382 31.973 336.657 32.5554C335.933 33.1378 335.397 33.9013 335.049 34.8459C334.701 35.7905 334.527 36.8097 334.527 37.9034C334.527 38.9972 334.701 40.0128 335.049 40.9503C335.397 41.8878 335.933 42.6442 336.657 43.2195C337.382 43.7947 338.305 44.0824 339.427 44.0824ZM338.277 27.4205L340.876 22.4773H343.817L340.493 27.4205H338.277ZM351.881 29.6364L355.802 36.3267L359.722 29.6364H362.62L357.336 37.8182L362.62 46H359.722L355.802 39.6506L351.881 46H348.983L354.182 37.8182L348.983 29.6364H351.881ZM366.207 46V29.6364H368.722V46H366.207ZM367.486 26.9091C366.996 26.9091 366.573 26.7422 366.218 26.4084C365.87 26.0746 365.696 25.6733 365.696 25.2045C365.696 24.7358 365.87 24.3345 366.218 24.0007C366.573 23.6669 366.996 23.5 367.486 23.5C367.976 23.5 368.395 23.6669 368.743 24.0007C369.098 24.3345 369.276 24.7358 369.276 25.2045C369.276 25.6733 369.098 26.0746 368.743 26.4084C368.395 26.7422 367.976 26.9091 367.486 26.9091ZM373.327 46V29.6364H375.756V32.1932H375.969C376.309 31.3196 376.86 30.6413 377.62 30.1584C378.38 29.6683 379.292 29.4233 380.358 29.4233C381.437 29.4233 382.336 29.6683 383.053 30.1584C383.778 30.6413 384.342 31.3196 384.747 32.1932H384.917C385.336 31.348 385.965 30.6768 386.803 30.1797C387.641 29.6754 388.646 29.4233 389.818 29.4233C391.281 29.4233 392.478 29.8814 393.408 30.7976C394.339 31.7067 394.804 33.1236 394.804 35.0483V46H392.29V35.0483C392.29 33.8409 391.959 32.978 391.299 32.4595C390.638 31.9411 389.861 31.6818 388.966 31.6818C387.815 31.6818 386.924 32.0298 386.292 32.7259C385.66 33.4148 385.344 34.2884 385.344 35.3466V46H382.787V34.7926C382.787 33.8622 382.485 33.1129 381.881 32.5447C381.278 31.9695 380.5 31.6818 379.548 31.6818C378.895 31.6818 378.284 31.8558 377.716 32.2038C377.155 32.5518 376.7 33.0348 376.352 33.6527C376.011 34.2635 375.841 34.9702 375.841 35.7727V46H373.327ZM404.216 46.3835C403.179 46.3835 402.238 46.1882 401.393 45.7976C400.548 45.3999 399.877 44.8281 399.379 44.0824C398.882 43.3295 398.634 42.4205 398.634 41.3551C398.634 40.4176 398.818 39.6577 399.188 39.0753C399.557 38.4858 400.051 38.0241 400.669 37.6903C401.286 37.3565 401.968 37.108 402.714 36.9446C403.467 36.7741 404.223 36.6392 404.983 36.5398C405.977 36.4119 406.784 36.3161 407.401 36.2521C408.026 36.1811 408.481 36.0639 408.765 35.9006C409.056 35.7372 409.202 35.4531 409.202 35.0483V34.9631C409.202 33.9119 408.914 33.0952 408.339 32.5128C407.771 31.9304 406.908 31.6392 405.75 31.6392C404.55 31.6392 403.609 31.902 402.927 32.4276C402.245 32.9531 401.766 33.5142 401.489 34.1108L399.102 33.2585C399.529 32.2642 400.097 31.4901 400.807 30.9361C401.524 30.375 402.306 29.9844 403.151 29.7642C404.003 29.5369 404.841 29.4233 405.665 29.4233C406.191 29.4233 406.794 29.4872 407.476 29.6151C408.165 29.7358 408.829 29.9879 409.468 30.3714C410.115 30.755 410.651 31.3338 411.077 32.108C411.503 32.8821 411.716 33.919 411.716 35.2188V46H409.202V43.7841H409.074C408.904 44.1392 408.619 44.5192 408.222 44.924C407.824 45.3288 407.295 45.6733 406.634 45.9574C405.974 46.2415 405.168 46.3835 404.216 46.3835ZM404.6 44.125C405.594 44.125 406.432 43.9297 407.114 43.5391C407.803 43.1484 408.321 42.6442 408.669 42.0263C409.024 41.4084 409.202 40.7585 409.202 40.0767V37.7756C409.095 37.9034 408.861 38.0206 408.499 38.1271C408.144 38.2266 407.732 38.3153 407.263 38.3935C406.801 38.4645 406.35 38.5284 405.91 38.5852C405.477 38.6349 405.125 38.6776 404.855 38.7131C404.202 38.7983 403.591 38.9368 403.023 39.1286C402.462 39.3132 402.007 39.5937 401.659 39.9702C401.318 40.3395 401.148 40.8437 401.148 41.483C401.148 42.3565 401.471 43.017 402.117 43.4645C402.771 43.9048 403.598 44.125 404.6 44.125ZM431.859 29.6364V31.767H423.379V29.6364H431.859ZM425.85 25.7159H428.365V41.3125C428.365 42.0227 428.468 42.5554 428.674 42.9105C428.887 43.2585 429.157 43.4929 429.483 43.6136C429.817 43.7273 430.169 43.7841 430.538 43.7841C430.815 43.7841 431.042 43.7699 431.22 43.7415C431.397 43.706 431.539 43.6776 431.646 43.6562L432.157 45.9148C431.987 45.9787 431.749 46.0426 431.444 46.1065C431.138 46.1776 430.751 46.2131 430.282 46.2131C429.572 46.2131 428.876 46.0604 428.194 45.755C427.52 45.4496 426.958 44.9844 426.511 44.3594C426.071 43.7344 425.85 42.946 425.85 41.9943V25.7159ZM440.456 46.3835C439.419 46.3835 438.478 46.1882 437.633 45.7976C436.788 45.3999 436.117 44.8281 435.62 44.0824C435.123 43.3295 434.874 42.4205 434.874 41.3551C434.874 40.4176 435.059 39.6577 435.428 39.0753C435.797 38.4858 436.291 38.0241 436.909 37.6903C437.527 37.3565 438.208 37.108 438.954 36.9446C439.707 36.7741 440.463 36.6392 441.223 36.5398C442.218 36.4119 443.024 36.3161 443.642 36.2521C444.267 36.1811 444.721 36.0639 445.005 35.9006C445.297 35.7372 445.442 35.4531 445.442 35.0483V34.9631C445.442 33.9119 445.154 33.0952 444.579 32.5128C444.011 31.9304 443.148 31.6392 441.99 31.6392C440.79 31.6392 439.849 31.902 439.167 32.4276C438.485 32.9531 438.006 33.5142 437.729 34.1108L435.343 33.2585C435.769 32.2642 436.337 31.4901 437.047 30.9361C437.765 30.375 438.546 29.9844 439.391 29.7642C440.243 29.5369 441.081 29.4233 441.905 29.4233C442.431 29.4233 443.034 29.4872 443.716 29.6151C444.405 29.7358 445.069 29.9879 445.708 30.3714C446.355 30.755 446.891 31.3338 447.317 32.108C447.743 32.8821 447.956 33.919 447.956 35.2188V46H445.442V43.7841H445.314C445.144 44.1392 444.86 44.5192 444.462 44.924C444.064 45.3288 443.535 45.6733 442.875 45.9574C442.214 46.2415 441.408 46.3835 440.456 46.3835ZM440.84 44.125C441.834 44.125 442.672 43.9297 443.354 43.5391C444.043 43.1484 444.561 42.6442 444.909 42.0263C445.265 41.4084 445.442 40.7585 445.442 40.0767V37.7756C445.336 37.9034 445.101 38.0206 444.739 38.1271C444.384 38.2266 443.972 38.3153 443.503 38.3935C443.042 38.4645 442.591 38.5284 442.15 38.5852C441.717 38.6349 441.365 38.6776 441.096 38.7131C440.442 38.7983 439.831 38.9368 439.263 39.1286C438.702 39.3132 438.248 39.5937 437.9 39.9702C437.559 40.3395 437.388 40.8437 437.388 41.483C437.388 42.3565 437.711 43.017 438.358 43.4645C439.011 43.9048 439.838 44.125 440.84 44.125ZM452.545 46V29.6364H454.974V32.108H455.145C455.443 31.2983 455.983 30.6413 456.764 30.1371C457.545 29.6328 458.426 29.3807 459.406 29.3807C459.591 29.3807 459.822 29.3842 460.099 29.3913C460.376 29.3984 460.585 29.4091 460.727 29.4233V31.9801C460.642 31.9588 460.447 31.9268 460.141 31.8842C459.843 31.8345 459.527 31.8097 459.193 31.8097C458.398 31.8097 457.687 31.9766 457.062 32.3104C456.444 32.6371 455.954 33.0916 455.592 33.674C455.237 34.2493 455.059 34.9062 455.059 35.6449V46H452.545ZM470.07 46.3409C468.493 46.3409 467.133 45.9929 465.99 45.2969C464.854 44.5938 463.976 43.6136 463.358 42.3565C462.748 41.0923 462.442 39.6222 462.442 37.946C462.442 36.2699 462.748 34.7926 463.358 33.5142C463.976 32.2287 464.836 31.2273 465.937 30.5099C467.045 29.7855 468.337 29.4233 469.814 29.4233C470.667 29.4233 471.508 29.5653 472.339 29.8494C473.17 30.1335 473.927 30.5952 474.608 31.2344C475.29 31.8665 475.834 32.7045 476.238 33.7486C476.643 34.7926 476.846 36.0781 476.846 37.6051V38.6705H464.232V36.4972H474.289C474.289 35.5739 474.104 34.75 473.735 34.0256C473.373 33.3011 472.854 32.7294 472.18 32.3104C471.512 31.8913 470.724 31.6818 469.814 31.6818C468.813 31.6818 467.947 31.9304 467.215 32.4276C466.491 32.9176 465.933 33.5568 465.542 34.3452C465.152 35.1335 464.956 35.9787 464.956 36.8807V38.3295C464.956 39.5653 465.17 40.6129 465.596 41.4723C466.029 42.3246 466.629 42.9744 467.396 43.4219C468.163 43.8622 469.055 44.0824 470.07 44.0824C470.731 44.0824 471.327 43.9901 471.86 43.8054C472.4 43.6136 472.865 43.3295 473.256 42.9531C473.646 42.5696 473.948 42.0937 474.161 41.5256L476.59 42.2074C476.334 43.0312 475.905 43.7557 475.301 44.3807C474.697 44.9986 473.952 45.4815 473.064 45.8295C472.176 46.1705 471.178 46.3409 470.07 46.3409ZM487.957 29.6364V31.767H479.136V29.6364H487.957ZM481.778 46V27.3778C481.778 26.4403 481.998 25.6591 482.439 25.0341C482.879 24.4091 483.451 23.9403 484.154 23.6278C484.857 23.3153 485.599 23.1591 486.381 23.1591C486.998 23.1591 487.503 23.2088 487.893 23.3082C488.284 23.4077 488.575 23.5 488.767 23.5852L488.042 25.7585C487.915 25.7159 487.737 25.6626 487.51 25.5987C487.29 25.5348 486.998 25.5028 486.636 25.5028C485.805 25.5028 485.205 25.7124 484.836 26.1314C484.474 26.5504 484.292 27.1648 484.292 27.9744V46H481.778ZM495.827 46.3835C494.79 46.3835 493.849 46.1882 493.004 45.7976C492.159 45.3999 491.488 44.8281 490.991 44.0824C490.494 43.3295 490.245 42.4205 490.245 41.3551C490.245 40.4176 490.43 39.6577 490.799 39.0753C491.168 38.4858 491.662 38.0241 492.28 37.6903C492.898 37.3565 493.58 37.108 494.325 36.9446C495.078 36.7741 495.835 36.6392 496.594 36.5398C497.589 36.4119 498.395 36.3161 499.013 36.2521C499.638 36.1811 500.092 36.0639 500.376 35.9006C500.668 35.7372 500.813 35.4531 500.813 35.0483V34.9631C500.813 33.9119 500.526 33.0952 499.95 32.5128C499.382 31.9304 498.519 31.6392 497.362 31.6392C496.161 31.6392 495.22 31.902 494.538 32.4276C493.857 32.9531 493.377 33.5142 493.1 34.1108L490.714 33.2585C491.14 32.2642 491.708 31.4901 492.418 30.9361C493.136 30.375 493.917 29.9844 494.762 29.7642C495.614 29.5369 496.452 29.4233 497.276 29.4233C497.802 29.4233 498.406 29.4872 499.087 29.6151C499.776 29.7358 500.44 29.9879 501.08 30.3714C501.726 30.755 502.262 31.3338 502.688 32.108C503.114 32.8821 503.327 33.919 503.327 35.2188V46H500.813V43.7841H500.685C500.515 44.1392 500.231 44.5192 499.833 44.924C499.435 45.3288 498.906 45.6733 498.246 45.9574C497.585 46.2415 496.779 46.3835 495.827 46.3835ZM496.211 44.125C497.205 44.125 498.043 43.9297 498.725 43.5391C499.414 43.1484 499.933 42.6442 500.281 42.0263C500.636 41.4084 500.813 40.7585 500.813 40.0767V37.7756C500.707 37.9034 500.472 38.0206 500.11 38.1271C499.755 38.2266 499.343 38.3153 498.874 38.3935C498.413 38.4645 497.962 38.5284 497.521 38.5852C497.088 38.6349 496.737 38.6776 496.467 38.7131C495.813 38.7983 495.202 38.9368 494.634 39.1286C494.073 39.3132 493.619 39.5937 493.271 39.9702C492.93 40.3395 492.759 40.8437 492.759 41.483C492.759 42.3565 493.082 43.017 493.729 43.4645C494.382 43.9048 495.21 44.125 496.211 44.125ZM511.198 39.8636V39.7358C511.212 38.3793 511.354 37.2997 511.624 36.4972C511.894 35.6946 512.277 35.0447 512.774 34.5476C513.271 34.0504 513.868 33.5923 514.564 33.1733C514.983 32.9176 515.36 32.6158 515.693 32.2678C516.027 31.9126 516.29 31.5043 516.482 31.0426C516.681 30.581 516.78 30.0696 516.78 29.5085C516.78 28.8125 516.617 28.2088 516.29 27.6974C515.963 27.1861 515.526 26.7919 514.98 26.5149C514.433 26.2379 513.825 26.0994 513.158 26.0994C512.575 26.0994 512.014 26.2202 511.475 26.4616C510.935 26.7031 510.484 27.0831 510.122 27.6016C509.759 28.12 509.55 28.7983 509.493 29.6364H506.808C506.865 28.429 507.178 27.3956 507.746 26.5362C508.321 25.6768 509.078 25.0199 510.015 24.5653C510.96 24.1108 512.007 23.8835 513.158 23.8835C514.408 23.8835 515.494 24.1321 516.418 24.6293C517.348 25.1264 518.066 25.8082 518.57 26.6747C519.081 27.5412 519.337 28.5284 519.337 29.6364C519.337 30.4176 519.216 31.1243 518.975 31.7564C518.74 32.3885 518.399 32.9531 517.952 33.4503C517.512 33.9474 516.979 34.3878 516.354 34.7713C515.729 35.1619 515.228 35.5739 514.852 36.0071C514.475 36.4332 514.202 36.9411 514.031 37.5305C513.861 38.12 513.769 38.8551 513.754 39.7358V39.8636H511.198ZM512.561 46.1705C512.036 46.1705 511.585 45.9822 511.208 45.6058C510.832 45.2294 510.644 44.7784 510.644 44.2528C510.644 43.7273 510.832 43.2763 511.208 42.8999C511.585 42.5234 512.036 42.3352 512.561 42.3352C513.087 42.3352 513.538 42.5234 513.914 42.8999C514.291 43.2763 514.479 43.7273 514.479 44.2528C514.479 44.6009 514.39 44.9205 514.213 45.2116C514.042 45.5028 513.811 45.7372 513.52 45.9148C513.236 46.0852 512.916 46.1705 512.561 46.1705Z" fill="#DFDFDF"/>
<path d="M947.053 53.7895V48.4211H941.684V44.8421H947.053V39.4737H950.632V44.8421H956V48.4211H950.632V53.7895H947.053ZM925.579 50.2105C924.595 50.2105 923.752 49.8598 923.05 49.1583C922.349 48.4568 921.999 47.6146 922 46.6316V25.1579C922 24.1737 922.351 23.3308 923.052 22.6294C923.754 21.9279 924.596 21.5778 925.579 21.5789H927.368V18H930.947V21.5789H941.684V18H945.263V21.5789H947.053C948.037 21.5789 948.88 21.9297 949.581 22.6312C950.283 23.3326 950.633 24.1749 950.632 25.1579V36.0737C950.035 35.9842 949.439 35.9395 948.842 35.9395C948.246 35.9395 947.649 35.9842 947.053 36.0737V32.3158H925.579V46.6316H938.105C938.105 47.2281 938.15 47.8246 938.239 48.4211C938.329 49.0175 938.493 49.614 938.732 50.2105H925.579Z" fill="#8B6BE7"/>
</svg>
