<svg width="185" height="143" viewBox="0 0 185 143" fill="none" xmlns="http://www.w3.org/2000/svg">
<circle cx="71.5" cy="71.5" r="71.5" fill="#D062DD"/>
<circle cx="92.5" cy="71.5" r="71.5" fill="#3FD4F4"/>
<circle cx="113.5" cy="71.5" r="71.5" fill="#FAC608"/>
<path d="M107.41 91.51L138.077 60.8425L131.987 54.7525L107.41 79.33L95.0125 66.9325L88.9225 73.0225L107.41 91.51ZM113.5 115C107.482 115 101.827 113.857 96.535 111.572C91.2425 109.287 86.6387 106.188 82.7237 102.276C78.8088 98.3612 75.7101 93.7575 73.4278 88.465C71.1455 83.1725 70.0029 77.5175 70 71.5C70 65.4825 71.1426 59.8275 73.4278 54.535C75.713 49.2425 78.8116 44.6387 82.7237 40.7237C86.6387 36.8088 91.2425 33.7101 96.535 31.4278C101.827 29.1455 107.482 28.0029 113.5 28C119.517 28 125.172 29.1426 130.465 31.4278C135.757 33.713 140.361 36.8116 144.276 40.7237C148.191 44.6387 151.291 49.2425 153.577 54.535C155.862 59.8275 157.003 65.4825 157 71.5C157 77.5175 155.857 83.1725 153.572 88.465C151.287 93.7575 148.188 98.3612 144.276 102.276C140.361 106.191 135.757 109.291 130.465 111.577C125.172 113.862 119.517 115.003 113.5 115ZM113.5 106.3C123.215 106.3 131.444 102.929 138.186 96.1862C144.929 89.4437 148.3 81.215 148.3 71.5C148.3 61.785 144.929 53.5562 138.186 46.8137C131.444 40.0712 123.215 36.7 113.5 36.7C103.785 36.7 95.5562 40.0712 88.8137 46.8137C82.0712 53.5562 78.7 61.785 78.7 71.5C78.7 81.215 82.0712 89.4437 88.8137 96.1862C95.5562 102.929 103.785 106.3 113.5 106.3Z" fill="#8B6BE7"/>
</svg>
