<svg width="300" height="300" viewBox="0 0 300 300" fill="none" xmlns="http://www.w3.org/2000/svg">
<rect width="300" height="300" rx="150" fill="white"/>
<path d="M150.375 60C125.522 60 105.188 85.305 105.188 116.484C105.188 147.664 125.522 172.969 150.375 172.969C175.228 172.969 195.562 147.664 195.562 116.484C195.562 85.305 175.228 60 150.375 60ZM103.154 172.969C79.2047 174.098 60 193.755 60 218.156V240.75H240.75V218.156C240.75 193.755 221.771 174.098 197.596 172.969C185.395 186.751 168.676 195.562 150.375 195.562C132.074 195.562 115.355 186.751 103.154 172.969Z" fill="#8B6BE7"/>
</svg>
